REM DIRINDEX 1\2\4,1\2\5,1\2\6,1\3\7,1\3\8,1\3\9,1\3\10
REM DIRNAME cjc057,folder01,folder02,folder03,folder04,folder05,folder06,folder07,folder08,folder09
TITLE ""
FILE "b_072.mp3" MP3
  TRACK 01 AUDIO
    TITLE "0:"
    INDEX 01 00:00:00
  TRACK 02 AUDIO
    TITLE "7:cjc057_06140"
    INDEX 01 00:00:15
  TRACK 03 AUDIO
    TITLE "0:"
    INDEX 01 00:01:46
  TRACK 04 AUDIO
    TITLE "8:cjc057_06141"
    INDEX 01 00:02:02
  TRACK 05 AUDIO
    TITLE "0:"
    INDEX 01 00:04:60
  TRACK 06 AUDIO
    TITLE "9:cjc057_06142"
    INDEX 01 00:05:28
  TRACK 07 AUDIO
    TITLE "0:"
    INDEX 01 00:08:28
  TRACK 08 AUDIO
    TITLE "7:cjc057_06143"
    INDEX 01 00:09:32
  TRACK 09 AUDIO
    TITLE "0:"
    INDEX 01 00:10:68
  TRACK 10 AUDIO
    TITLE "8:cjc057_06144"
    INDEX 01 00:11:23
  TRACK 11 AUDIO
    TITLE "0:"
    INDEX 01 00:12:48
  TRACK 12 AUDIO
    TITLE "9:cjc057_06145"
    INDEX 01 00:13:16
  TRACK 13 AUDIO
    TITLE "0:"
    INDEX 01 00:16:53
  TRACK 14 AUDIO
    TITLE "7:cjc057_06146"
    INDEX 01 00:17:61
  TRACK 15 AUDIO
    TITLE "0:"
    INDEX 01 00:19:03
  TRACK 16 AUDIO
    TITLE "8:cjc057_06147"
    INDEX 01 00:19:36
  TRACK 17 AUDIO
    TITLE "0:"
    INDEX 01 00:20:59
  TRACK 18 AUDIO
    TITLE "9:cjc057_06148"
    INDEX 01 00:21:27
  TRACK 19 AUDIO
    TITLE "0:"
    INDEX 01 00:24:20
  TRACK 20 AUDIO
    TITLE "7:cjc057_06149"
    INDEX 01 00:25:27
  TRACK 21 AUDIO
    TITLE "0:"
    INDEX 01 00:26:50
  TRACK 22 AUDIO
    TITLE "8:cjc057_06150"
    INDEX 01 00:27:08
  TRACK 23 AUDIO
    TITLE "0:"
    INDEX 01 00:28:74
  TRACK 24 AUDIO
    TITLE "9:cjc057_06151"
    INDEX 01 00:29:40
  TRACK 25 AUDIO
    TITLE "0:"
    INDEX 01 00:33:62
  TRACK 26 AUDIO
    TITLE "7:cjc057_06152"
    INDEX 01 00:34:71
  TRACK 27 AUDIO
    TITLE "0:"
    INDEX 01 00:36:33
  TRACK 28 AUDIO
    TITLE "8:cjc057_06153"
    INDEX 01 00:36:66
  TRACK 29 AUDIO
    TITLE "0:"
    INDEX 01 00:38:65
  TRACK 30 AUDIO
    TITLE "9:cjc057_06154"
    INDEX 01 00:39:33
  TRACK 31 AUDIO
    TITLE "0:"
    INDEX 01 00:43:17
  TRACK 32 AUDIO
    TITLE "7:cjc057_06155"
    INDEX 01 00:44:22
  TRACK 33 AUDIO
    TITLE "0:"
    INDEX 01 00:45:49
  TRACK 34 AUDIO
    TITLE "8:cjc057_06156"
    INDEX 01 00:46:06
  TRACK 35 AUDIO
    TITLE "0:"
    INDEX 01 00:47:50
  TRACK 36 AUDIO
    TITLE "9:cjc057_06157"
    INDEX 01 00:48:14
  TRACK 37 AUDIO
    TITLE "0:"
    INDEX 01 00:51:65
  TRACK 38 AUDIO
    TITLE "7:cjc057_06158"
    INDEX 01 00:52:71
  TRACK 39 AUDIO
    TITLE "0:"
    INDEX 01 00:54:34
  TRACK 40 AUDIO
    TITLE "8:cjc057_06159"
    INDEX 01 00:54:66
  TRACK 41 AUDIO
    TITLE "0:"
    INDEX 01 00:56:43
  TRACK 42 AUDIO
    TITLE "9:cjc057_06160"
    INDEX 01 00:57:07
  TRACK 43 AUDIO
    TITLE "0:"
    INDEX 01 01:00:66
  TRACK 44 AUDIO
    TITLE "7:cjc057_06161"
    INDEX 01 01:01:70
  TRACK 45 AUDIO
    TITLE "0:"
    INDEX 01 01:03:31
  TRACK 46 AUDIO
    TITLE "8:cjc057_06162"
    INDEX 01 01:03:61
  TRACK 47 AUDIO
    TITLE "0:"
    INDEX 01 01:05:34
  TRACK 48 AUDIO
    TITLE "9:cjc057_06163"
    INDEX 01 01:06:02
  TRACK 49 AUDIO
    TITLE "0:"
    INDEX 01 01:10:22
  TRACK 50 AUDIO
    TITLE "7:cjc057_06164"
    INDEX 01 01:11:27
  TRACK 51 AUDIO
    TITLE "0:"
    INDEX 01 01:12:30
  TRACK 52 AUDIO
    TITLE "8:cjc057_06165"
    INDEX 01 01:12:62
  TRACK 53 AUDIO
    TITLE "0:"
    INDEX 01 01:14:12
  TRACK 54 AUDIO
    TITLE "9:cjc057_06166"
    INDEX 01 01:14:57
  TRACK 55 AUDIO
    TITLE "0:"
    INDEX 01 01:17:06
  TRACK 56 AUDIO
    TITLE "7:cjc057_06167"
    INDEX 01 01:18:11
  TRACK 57 AUDIO
    TITLE "0:"
    INDEX 01 01:19:27
  TRACK 58 AUDIO
    TITLE "8:cjc057_06168"
    INDEX 01 01:19:58
  TRACK 59 AUDIO
    TITLE "0:"
    INDEX 01 01:21:06
  TRACK 60 AUDIO
    TITLE "9:cjc057_06169"
    INDEX 01 01:21:51
  TRACK 61 AUDIO
    TITLE "0:"
    INDEX 01 01:25:33
  TRACK 62 AUDIO
    TITLE "7:cjc057_06170"
    INDEX 01 01:26:40
  TRACK 63 AUDIO
    TITLE "0:"
    INDEX 01 01:27:61
  TRACK 64 AUDIO
    TITLE "8:cjc057_06171"
    INDEX 01 01:28:16
  TRACK 65 AUDIO
    TITLE "0:"
    INDEX 01 01:29:45
  TRACK 66 AUDIO
    TITLE "9:cjc057_06172"
    INDEX 01 01:30:13
  TRACK 67 AUDIO
    TITLE "0:"
    INDEX 01 01:33:48
  TRACK 68 AUDIO
    TITLE "7:cjc057_06173"
    INDEX 01 01:34:55
  TRACK 69 AUDIO
    TITLE "0:"
    INDEX 01 01:35:61
  TRACK 70 AUDIO
    TITLE "8:cjc057_06174"
    INDEX 01 01:36:15
  TRACK 71 AUDIO
    TITLE "0:"
    INDEX 01 01:37:30
  TRACK 72 AUDIO
    TITLE "9:cjc057_06175"
    INDEX 01 01:37:73
  TRACK 73 AUDIO
    TITLE "0:"
    INDEX 01 01:40:56
  TRACK 74 AUDIO
    TITLE "7:cjc057_06176"
    INDEX 01 01:41:63
  TRACK 75 AUDIO
    TITLE "0:"
    INDEX 01 01:43:03
  TRACK 76 AUDIO
    TITLE "8:cjc057_06177"
    INDEX 01 01:43:35
  TRACK 77 AUDIO
    TITLE "0:"
    INDEX 01 01:45:24
  TRACK 78 AUDIO
    TITLE "9:cjc057_06178"
    INDEX 01 01:45:69
  TRACK 79 AUDIO
    TITLE "0:"
    INDEX 01 01:49:63
  TRACK 80 AUDIO
    TITLE "7:cjc057_06179"
    INDEX 01 01:50:70
  TRACK 81 AUDIO
    TITLE "0:"
    INDEX 01 01:52:26
  TRACK 82 AUDIO
    TITLE "8:cjc057_06180"
    INDEX 01 01:52:55
  TRACK 83 AUDIO
    TITLE "0:"
    INDEX 01 01:54:11
  TRACK 84 AUDIO
    TITLE "9:cjc057_06181"
    INDEX 01 01:54:54
  TRACK 85 AUDIO
    TITLE "0:"
    INDEX 01 01:58:13
  TRACK 86 AUDIO
    TITLE "7:cjc057_06182"
    INDEX 01 01:59:20
  TRACK 87 AUDIO
    TITLE "0:"
    INDEX 01 02:00:35
  TRACK 88 AUDIO
    TITLE "8:cjc057_06183"
    INDEX 01 02:00:63
  TRACK 89 AUDIO
    TITLE "0:"
    INDEX 01 02:02:01
  TRACK 90 AUDIO
    TITLE "9:cjc057_06184"
    INDEX 01 02:02:46
  TRACK 91 AUDIO
    TITLE "0:"
    INDEX 01 02:06:10
  TRACK 92 AUDIO
    TITLE "7:cjc057_06185"
    INDEX 01 02:07:16
  TRACK 93 AUDIO
    TITLE "0:"
    INDEX 01 02:08:31
  TRACK 94 AUDIO
    TITLE "8:cjc057_06186"
    INDEX 01 02:08:64
  TRACK 95 AUDIO
    TITLE "0:"
    INDEX 01 02:10:43
  TRACK 96 AUDIO
    TITLE "9:cjc057_06187"
    INDEX 01 02:11:08
  TRACK 97 AUDIO
    TITLE "0:"
    INDEX 01 02:13:54
  TRACK 98 AUDIO
    TITLE "7:cjc057_06188"
    INDEX 01 02:14:59
  TRACK 99 AUDIO
    TITLE "0:"
    INDEX 01 02:16:30
  TRACK 100 AUDIO
    TITLE "8:cjc057_06189"
    INDEX 01 02:16:62
  TRACK 101 AUDIO
    TITLE "0:"
    INDEX 01 02:19:09
  TRACK 102 AUDIO
    TITLE "9:cjc057_06190"
    INDEX 01 02:19:50
  TRACK 103 AUDIO
    TITLE "0:"
    INDEX 01 02:23:30
